<svg width="22" height="12" viewBox="0 0 22 12" fill="none" xmlns="http://www.w3.org/2000/svg">
<path d="M10.293 11.7081L0.293041 1.70806C0.20013 1.61515 0.126432 1.50485 0.076149 1.38345C0.0258656 1.26206 -1.52588e-05 1.13195 -1.52588e-05 1.00056C-1.52588e-05 0.869161 0.0258656 0.739053 0.076149 0.61766C0.126432 0.496267 0.20013 0.385966 0.293041 0.293056C0.385952 0.200145 0.496252 0.126445 0.617645 0.0761623C0.739038 0.0258797 0.869146 0 1.00054 0C1.13194 0 1.26204 0.0258797 1.38344 0.0761623C1.50483 0.126445 1.61513 0.200145 1.70804 0.293056L11.0005 9.58681L20.293 0.293056C20.4807 0.105415 20.7352 -1.97712e-09 21.0005 0C21.2659 1.97712e-09 21.5204 0.105415 21.708 0.293056C21.8957 0.480696 22.0011 0.735192 22.0011 1.00056C22.0011 1.26592 21.8957 1.52042 21.708 1.70806L11.708 11.7081C11.6152 11.801 11.5049 11.8748 11.3835 11.9251C11.2621 11.9754 11.132 12.0013 11.0005 12.0013C10.8691 12.0013 10.739 11.9754 10.6176 11.9251C10.4962 11.8748 10.3859 11.801 10.293 11.7081Z" fill="#04040A"/>
</svg>
