<svg width="32" height="32" viewBox="0 0 32 32" fill="none" xmlns="http://www.w3.org/2000/svg">
<path d="M9.29243 16.7074L19.2924 26.7074C19.3853 26.8004 19.4956 26.8741 19.617 26.9243C19.7384 26.9746 19.8685 27.0005 19.9999 27.0005C20.1313 27.0005 20.2614 26.9746 20.3828 26.9243C20.5042 26.8741 20.6145 26.8004 20.7074 26.7074C20.8003 26.6145 20.874 26.5042 20.9243 26.3828C20.9746 26.2614 21.0005 26.1313 21.0005 25.9999C21.0005 25.8686 20.9746 25.7384 20.9243 25.6171C20.874 25.4957 20.8003 25.3854 20.7074 25.2924L11.4137 15.9999L20.7074 6.70745C20.8951 6.5198 21.0005 6.26531 21.0005 5.99995C21.0005 5.73458 20.8951 5.48009 20.7074 5.29245C20.5198 5.1048 20.2653 4.99939 19.9999 4.99939C19.7346 4.99939 19.4801 5.1048 19.2924 5.29245L9.29243 15.2924C9.19946 15.3853 9.1257 15.4956 9.07537 15.617C9.02505 15.7384 8.99915 15.8685 8.99915 15.9999C8.99915 16.1314 9.02505 16.2615 9.07537 16.3829C9.1257 16.5043 9.19946 16.6146 9.29243 16.7074Z" fill="#04040A"/>
</svg>
